<?xml version="1.0" encoding="utf-8"?>
<!-- Generator: Adobe Illustrator 28.0.0, SVG Export Plug-In . SVG Version: 6.00 Build 0)  -->
<svg version="1.1" id="Layer_1" xmlns="http://www.w3.org/2000/svg" xmlns:xlink="http://www.w3.org/1999/xlink" x="0px" y="0px"
	 viewBox="0 0 317.14 278.6" style="enable-background:new 0 0 317.14 278.6;" xml:space="preserve">
<style type="text/css">
	.st0{fill:#3462BF;}
</style>
<g>
	<path class="st0" d="M102.29,115.19c0-1.75,0-3.08,0-4.42c0-16.59-0.01-33.18,0-49.77c0-5.65,1.45-7.14,7.02-7.14
		c32.87-0.01,65.74-0.01,98.62,0c5.37,0,6.93,1.55,6.93,6.86c0.02,16.59,0.01,33.18,0.01,49.77c0,1.36,0,2.73,0,4.7
		c5.76,0,11.33,0,16.9,0c6.33,0,6.82,0.38,8.61,6.45c6.05,20.42,12.16,40.82,18.08,61.28c0.85,2.92,2.12,3.94,5.18,3.78
		c5.36-0.28,10.75,0.02,16.12-0.11c3.61-0.09,5.79,1.34,7.07,4.78c9.78,26.26,19.67,52.49,29.49,78.73
		c2.09,5.58,0.11,8.48-5.75,8.48c-101.37,0.01-202.73,0.01-304.1,0c-5.66,0-7.73-2.94-5.75-8.23c9.86-26.36,19.8-52.7,29.64-79.08
		c1.22-3.26,3.27-4.75,6.75-4.69c5.62,0.11,11.25-0.13,16.87,0.09c2.8,0.11,3.84-0.91,4.6-3.51c5.98-20.57,12.12-41.09,18.21-61.63
		c1.77-5.97,2.27-6.35,8.69-6.36C90.95,115.19,96.42,115.19,102.29,115.19z M109.44,197.02c-1.29-0.06-1.9-0.12-2.51-0.12
		c-21.62-0.01-43.25,0.06-64.87-0.08c-2.7-0.02-3.33,1.36-4.07,3.31c-8.03,21.47-16.1,42.92-24.14,64.38
		c-0.42,1.12-0.72,2.28-1.17,3.73c28.55,0,56.73,0,85.25,0C101.75,244.55,105.57,220.96,109.44,197.02z M304.49,268.31
		c-0.25-1.06-0.33-1.67-0.54-2.23c-8.38-22.27-16.8-44.51-25.09-66.81c-0.8-2.15-1.99-2.41-3.92-2.41
		c-21.37,0.05-42.75,0.03-64.12,0.04c-0.93,0-1.86,0.19-3.06,0.32c3.86,23.88,7.68,47.46,11.5,71.08
		C247.8,268.31,275.89,268.31,304.49,268.31z M196.14,125.31c3.35,20.71,6.62,40.91,9.87,61.01c14.46,0,28.47,0,42.89,0
		c-2.91-9.79-5.64-19.21-8.6-28.56c-0.27-0.84-1.96-1.68-3.04-1.74c-3.73-0.21-7.49-0.03-11.23-0.1c-3.86-0.07-6.03-2.01-5.95-5.17
		c0.08-3.03,2.13-4.81,5.86-4.89c3.46-0.08,6.92-0.02,10.94-0.02c-1.87-6.32-3.71-12.09-5.26-17.94c-0.58-2.18-1.7-2.65-3.72-2.62
		c-6.24,0.09-12.49,0.03-18.73,0.03C204.96,125.31,200.75,125.31,196.14,125.31z M204.34,115c0-12.1,0-23.73,0-35.38
		c-30.7,0-61.11,0-91.53,0c0,11.89,0,23.54,0,35.38c3.34,0,6.41,0,9.67,0c0.98-4.23,3.96-5.19,7.92-4.98
		c4.17,0.22,8.36,0.05,12.85,0.05c0-6.76-0.06-12.98,0.02-19.19c0.06-4.72,1.67-6.28,6.33-6.31c5.37-0.04,10.74-0.01,16.11-0.01
		c7.25,0,8.22,0.97,8.23,8.19c0.01,5.7,0,11.4,0,17.33c4.24,0,7.99,0.14,11.71-0.04c4.26-0.2,8.13,0.05,9.12,4.97
		C198.17,115,201.13,115,204.34,115z M121.02,125.31c-1.61,0-2.81,0-4.02,0c-8.87,0-17.75,0.17-26.61-0.09
		c-3.31-0.1-4.46,1.14-5.32,4.1c-4.57,15.91-9.36,31.77-14.06,47.65c-0.9,3.05-1.72,6.13-2.64,9.41c14.51,0,28.56,0,42.76,0
		c0.82-4.99,1.6-9.76,2.45-15c-5.19,0-10.17,0.22-15.11-0.11c-1.9-0.13-4.15-1.07-5.43-2.42c-0.88-0.93-1.04-3.7-0.28-4.71
		c1.1-1.46,3.28-2.8,5.08-2.91c5.7-0.36,11.43-0.13,17.39-0.13C117.17,149.11,119.05,137.47,121.02,125.31z M133.28,120.97
		c-0.38-0.05-0.76-0.1-1.14-0.15c-7.93,49.08-15.87,98.16-23.83,147.39c3.45,0,6.51,0,9.83,0
		C123.2,218.99,128.24,169.98,133.28,120.97z M185.04,120.9c-0.39,0.03-0.77,0.06-1.16,0.08c5.05,49.06,10.09,98.12,15.14,147.2
		c3.44,0,6.48,0,9.82,0C200.88,218.88,192.96,169.89,185.04,120.9z M128.46,268.17c20.35,0,40.14,0,60.26,0
		c-0.38-3.47-0.73-6.61-1.07-9.71c-19.62,0-38.82,0-58.17,0C129.14,261.72,128.82,264.78,128.46,268.17z M130.61,247.69
		c18.76,0,37.14,0,55.95,0c-0.36-3.37-0.69-6.49-1.03-9.61c-18.21,0-35.98,0-53.97,0C131.24,241.35,130.94,244.39,130.61,247.69z
		 M132.69,227.32c17.53,0,34.55,0,51.79,0c-0.37-3.46-0.7-6.63-1.05-9.9c-16.72,0-33.03,0-49.72,0
		C133.37,220.72,133.04,223.9,132.69,227.32z M181.37,197.03c-15.31,0-30.27,0-45.58,0c-0.33,3.27-0.65,6.43-1,9.87
		c15.96,0,31.62,0,47.58,0C182.02,203.47,181.7,200.3,181.37,197.03z M112.77,68.74c30.7,0,61.18,0,91.64,0c0-1.65,0-2.98,0-4.52
		c-30.62,0-61.02,0-91.64,0C112.77,65.76,112.77,67.09,112.77,68.74z M180,186.39c0.7-3.8-0.56-5.01-4.13-4.95
		c-11.48,0.21-22.96,0.22-34.44,0c-3.74-0.07-5.01,1.2-4.28,4.95C151.38,186.39,165.67,186.39,180,186.39z M178.12,166.43
		c-13.11,0-26.03,0-39.1,0c-0.22,1.62-0.42,3.07-0.64,4.69c13.6,0,26.86,0,40.41,0C178.55,169.38,178.34,167.92,178.12,166.43z
		 M142.14,135.69c-0.19,1.8-0.34,3.23-0.51,4.83c11.48,0,22.54,0,33.95,0c-0.22-1.76-0.42-3.29-0.61-4.83
		C163.88,135.69,153.16,135.69,142.14,135.69z M139.93,155.57c12.67,0,24.88,0,37.31,0c-0.31-1.7-0.55-3.01-0.82-4.44
		c-11.98,0-23.76,0-35.72,0C140.45,152.61,140.22,153.93,139.93,155.57z M153.72,94.88c0,5.24,0,10.13,0,14.9c3.47,0,6.63,0,9.87,0
		c0-5.07,0-9.86,0-14.9C160.25,94.88,157.09,94.88,153.72,94.88z M143.36,125.05c10.24,0,20.26,0,30.56,0
		c-0.2-1.71-0.37-3.12-0.53-4.5c-10.1,0-19.88,0-29.77,0C143.53,122.18,143.45,123.51,143.36,125.05z"/>
	<path class="st0" d="M235.44,38.4c-8.46,0.03-15.28-6.63-15.37-15.01c-0.09-8.55,6.76-15.54,15.26-15.58
		c8.46-0.04,15.51,7.03,15.43,15.47C250.68,31.64,243.86,38.37,235.44,38.4z M235.25,28.24c2.69,0.08,5.03-2.13,5.15-4.87
		c0.11-2.78-1.95-5.11-4.68-5.3c-2.89-0.2-5.3,2.07-5.33,5.02C230.36,25.88,232.51,28.16,235.25,28.24z"/>
	<path class="st0" d="M161.36,15.71c5.46,6.82,6.11,8.99,3.48,11.42c-2.65,2.45-4.68,1.76-11.12-3.88
		c-3.36,2.24-5.87,8.22-11.28,3.62c-2.68-2.28-1.82-4.53,3.66-11.06c-2.07-3.54-8.74-6.6-3.09-11.53c4.7-4.1,7.32,1.55,10.67,3.96
		c3.44-2.09,5.88-8.27,11.32-3.61C167.72,6.96,166.87,9.23,161.36,15.71z"/>
	<path class="st0" d="M97.51,0c3.05-0.07,5.53,2.31,5.56,5.32c0.03,3.04-2.37,5.42-5.46,5.4c-2.96-0.02-5.23-2.19-5.35-5.12
		C92.13,2.53,94.45,0.07,97.51,0z"/>
	<path class="st0" d="M51.08,227.59c3.24,0,6.48-0.02,9.71,0c3.21,0.02,5.32,1.54,5.51,4.81c0.19,3.32-1.86,5.22-4.99,5.31
		c-6.84,0.19-13.7,0.19-20.54-0.01c-3.21-0.1-5.38-2.58-5.02-5.33c0.41-3.16,2.36-4.79,5.61-4.78
		C44.6,227.6,47.84,227.59,51.08,227.59z"/>
	<path class="st0" d="M81.72,227.6c1.74,0,3.5-0.09,5.23,0.02c2.86,0.18,4.69,1.69,4.92,4.6c0.24,3.11-1.44,5.15-4.45,5.38
		c-3.83,0.29-7.73,0.27-11.55-0.06c-2.85-0.25-4.42-2.32-4.23-5.21c0.19-2.86,1.96-4.5,4.84-4.71
		C78.22,227.5,79.97,227.61,81.72,227.6z"/>
	<path class="st0" d="M268.53,253.08c-3.99,0-7.98,0.06-11.97-0.02c-3.57-0.07-5.71-2.01-5.74-5.02c-0.04-3,2.05-5.11,5.63-5.16
		c8.11-0.12,16.22-0.11,24.32-0.01c3.59,0.05,5.76,2.13,5.79,5.06c0.04,3.04-2.31,5.08-6.06,5.13
		C276.51,253.13,272.52,253.08,268.53,253.08z"/>
	<path class="st0" d="M243.28,222.42c2.5,0,5.01-0.13,7.49,0.03c3.04,0.2,4.95,1.99,5.01,5.01c0.05,3.05-1.86,5-4.87,5.13
		c-5.24,0.21-10.5,0.24-15.73-0.01c-2.96-0.14-4.85-2.01-4.77-5.17c0.08-3.15,2-4.77,5-4.97
		C238.03,222.29,240.66,222.42,243.28,222.42z"/>
</g>
</svg>
