<?xml version="1.0" encoding="utf-8"?>
<!-- Generator: Adobe Illustrator 28.0.0, SVG Export Plug-In . SVG Version: 6.00 Build 0)  -->
<svg version="1.1" id="Layer_1" xmlns="http://www.w3.org/2000/svg" xmlns:xlink="http://www.w3.org/1999/xlink" x="0px" y="0px"
	 viewBox="0 0 328.52 328.56" style="enable-background:new 0 0 328.52 328.56;" xml:space="preserve">
<style type="text/css">
	.st0{fill:#3462BF;}
</style>
<g>
	<path class="st0" d="M35.29,0c2.64,1.95,2.94,4.22,1.65,7.26c-6.2,14.55-3.37,29.79,7.34,40.56c10.7,10.76,26.18,13.63,40.87,7.54
		c2.16-0.9,4.32-1.64,6.19,0.44c1.88,2.08,0.91,4.11-0.27,6.16c-9.6,16.77-27.05,25.35-46.18,22.67
		c-17.7-2.48-32.41-16.24-36.8-34.43C3.75,32.24,12.3,11.98,28.15,2.61c1.35-0.8,2.62-1.74,3.93-2.61C33.15,0,34.22,0,35.29,0z
		 M25.31,15.79c-8.87,9.28-12.05,20.41-9.1,32.79C19.71,63.28,29.3,72.62,44,76.01c12.46,2.88,23.49-0.55,33.46-9.43
		C45.78,70.21,22.04,44.6,25.31,15.79z"/>
	<path class="st0" d="M0,292.57c1.22-2.22,3.15-2.95,5.59-2.94c20.28,0.03,40.55,0.01,60.83,0.03c0.74,0,1.49,0.07,2.22,0.21
		c2.2,0.42,3.37,1.79,3.31,4.02c-0.06,2.23-1.3,3.53-3.51,3.85c-0.63,0.09-1.28,0.09-1.92,0.09c-20.28,0-40.55-0.02-60.83,0.04
		c-2.45,0.01-4.36-0.64-5.69-2.73C0,294.28,0,293.43,0,292.57z"/>
	<path class="st0" d="M320.23,227.2c0-5.96-0.01-11.92,0.01-17.89c0-1.07-0.07-2.16,0.14-3.2c0.44-2.26,1.8-3.65,4.23-3.54
		c2.42,0.12,3.73,1.63,3.84,3.93c0.15,3.2,0.06,6.41,0.05,9.62c-0.02,8.02-0.06,16.04-0.05,24.06c0,2.42-0.47,4.61-3.05,5.39
		c-2.62,0.8-4.12-0.91-5.46-2.89c-7.4-10.98-14.85-21.92-22.7-33.5c-0.13,1.53-0.27,2.39-0.27,3.25
		c-0.02,9.09,0.01,18.18-0.02,27.27c-0.01,4.82-1.27,6.07-6.08,6.08c-29.62,0.01-59.24,0.04-88.85-0.05
		c-2.49-0.01-3.69,0.6-4.65,3.07c-5.38,13.82-19.43,23.22-34.26,23.21c-14.99,0-28.73-9.26-34.34-23.12
		c-0.4-0.99-0.85-1.95-1.35-3.1c-1.28,0-2.55,0-3.83,0c-24.16,0-48.33,0.13-72.49-0.09c-5.97-0.06-12.13,1.58-17.94-1.18
		c-0.39-6-0.91-11.99-1.12-17.99c-0.19-5.53-0.04-11.07-0.63-16.92c-0.63,0.89-1.28,1.76-1.89,2.66
		c-6.84,10.08-13.63,20.19-20.56,30.21c-0.91,1.31-2.34,2.63-3.8,3.1c-2.54,0.82-4.58-1.33-4.59-4.6
		c-0.03-9.41,0.03-18.82,0.05-28.23c0.01-2.35-0.04-4.71,0.03-7.06c0.08-2.89,1.77-4.93,4.09-4.76c2.84,0.22,4.12,2.08,4.13,4.78
		c0.03,6.52-0.03,13.04-0.05,19.57c0,0.53,0.05,1.06,0.12,2.58c1.2-1.7,1.94-2.73,2.66-3.77C60.76,151.58,109.94,79.06,159.11,6.54
		c0.66-0.97,1.26-2.01,2.05-2.87c1.94-2.13,4.47-2.17,6.43-0.07c0.94,1.01,1.66,2.22,2.44,3.37
		c49.23,72.61,98.46,145.23,147.69,217.84c0.59,0.87,1.23,1.71,1.84,2.57C319.79,227.32,320.01,227.26,320.23,227.2z M288.69,237.4
		c0-1.32,0-2.37,0-3.42c0-11.44,0.08-22.88-0.08-34.32c-0.03-1.87-0.69-4-1.74-5.56c-31.04-45.95-62.16-91.85-93.27-137.75
		c-9.65-14.23-19.3-28.45-29.11-42.91c-0.69,0.93-1.29,1.66-1.82,2.44c-40.3,59.42-80.6,118.85-120.82,178.32
		c-0.99,1.47-1.56,3.52-1.58,5.3c-0.14,11.54-0.08,23.09-0.06,34.64c0,1.04,0.11,2.07,0.18,3.26c12.03,0,23.84,0,35.87,0
		c0.05-1.17,0.14-2.21,0.15-3.25c0.01-7.8,0.08-15.61-0.03-23.41c-0.04-2.8,0.89-4.81,3.06-6.64
		c24.44-20.51,45.46-43.99,61.28-71.81c11.59-20.39,19.41-42.03,19.72-65.87c0.04-3.37,1.77-5.4,4.27-5.3
		c2.4,0.09,3.96,2.01,4.01,5.26c0.31,24.18,8.35,46.06,20.17,66.71c15.3,26.72,35.46,49.44,58.86,69.29
		c3.75,3.18,5.31,6.36,5.1,11.19c-0.35,7.87-0.09,15.76-0.09,23.82C264.79,237.4,276.5,237.4,288.69,237.4z M244.46,237.43
		c0-8.21-0.08-16.1,0.05-23.99c0.04-2.16-0.7-3.52-2.3-4.86c-12.8-10.75-24.52-22.6-35.28-35.39
		c-16.34-19.44-29.85-40.6-38.49-64.63c-1.35-3.76-2.46-7.61-3.88-12.01c-0.57,1.73-0.98,2.82-1.3,3.94
		c-4.98,17.18-12.91,32.96-22.63,47.89c-14.75,22.66-32.89,42.31-53.3,59.96c-1.06,0.92-2.51,2.2-2.54,3.35
		c-0.22,8.52-0.12,17.05-0.12,25.62c13.92,0,27.51,0,40.15,0c1.65-5.81,2.62-11.34,4.76-16.35c7.3-17.05,18.38-31.74,29.93-46.07
		c2.25-2.79,5.18-2.57,7.5,0.52c5.91,7.85,12.11,15.53,17.44,23.77c7.57,11.7,15.48,23.4,15.95,38.27
		C215.02,237.43,229.53,237.43,244.46,237.43z M185.75,252.57c-0.29,0.26-0.02,0.09,0.15-0.15c7.14-9.49,7.66-19.47,2.5-30.06
		c-6.69-13.71-15.48-26.02-24.76-38.03c-0.16-0.2-0.5-0.27-0.86-0.45c-9.56,12.42-18.79,24.97-25.36,39.21
		c-2.48,5.37-4.18,10.94-2.79,17.05c1.25,5.46,3.38,10.36,7.26,14.19c0.69-3.58,0.88-7.15,2.08-10.35
		c3.59-9.63,9.83-17.67,16.25-25.54c2.1-2.57,4.93-2.43,7.03,0.47c4.62,6.39,9.35,12.75,13.27,19.57
		C182.99,242.78,184.07,247.88,185.75,252.57z M164.4,227.41c-0.6,0.04-1.2,0.07-1.79,0.11c-3.77,6.64-7.84,13.12-11.19,19.96
		c-2.32,4.73-0.03,10.52,4.46,13.79c4.59,3.34,10.92,3.27,15.51-0.17c4.37-3.27,6.61-8.93,4.34-13.54
		C172.34,240.66,168.21,234.11,164.4,227.41z"/>
	<path class="st0" d="M209.15,297.5c4.79,1.36,8.79,2.47,12.76,3.63c4.48,1.31,5.32,2.83,4.02,7.29c-1.4,4.82-2.8,9.63-4.26,14.43
		c-1.31,4.3-2.78,5.09-7.12,3.87c-15.72-4.43-31.41-8.94-47.17-13.23c-2.09-0.57-4.65-0.54-6.71,0.12
		c-14.23,4.53-28.39,9.31-42.57,14c-4.99,1.65-6.32,0.98-8.09-4.06c-1.62-4.63-3.24-9.27-4.81-13.92c-1.35-4-0.52-5.61,3.54-7.02
		c3.38-1.17,6.77-2.3,10.11-4.06c-4.16-1.17-8.32-2.32-12.47-3.52c-4.24-1.22-5.17-2.89-3.95-7.11c1.42-4.92,2.85-9.84,4.35-14.74
		c1.25-4.08,2.8-4.93,6.92-3.78c16.24,4.55,32.45,9.19,48.71,13.65c1.71,0.47,3.83,0.4,5.53-0.14c15.24-4.9,30.42-9.97,45.63-14.98
		c4.89-1.61,6.18-0.96,7.88,3.9c1.66,4.73,3.36,9.45,4.96,14.21c1.27,3.78,0.4,5.5-3.43,6.83
		C218.67,294.37,214.32,295.78,209.15,297.5z M117.23,319.21c33.68-11.14,67.02-22.17,100.49-33.24c-1.22-3.43-2.28-6.41-3.43-9.65
		c-33.58,11.11-66.91,22.14-100.41,33.23C115.04,312.92,116.05,315.82,117.23,319.21z M150.25,288.86
		c-0.02-0.21-0.04-0.41-0.07-0.62c-12.01-3.39-24.02-6.78-36.24-10.22c-1.02,3.44-1.92,6.47-2.91,9.78
		c7.45,2.1,14.71,4.14,21.97,6.17c0.4,0.11,0.87,0.21,1.24,0.09C139.59,292.35,144.92,290.6,150.25,288.86z M214.49,318.18
		c0.98-3.34,1.89-6.45,2.86-9.78c-7.36-2.1-14.42-4.12-21.48-6.11c-0.39-0.11-0.88-0.13-1.26,0c-5.26,1.72-10.51,3.47-15.76,5.22
		c0.02,0.21,0.03,0.41,0.05,0.62C190.65,311.45,202.41,314.77,214.49,318.18z"/>
	<path class="st0" d="M284.55,328.5c-12.4,0-24.8,0-37.2-0.01c-1.06,0-2.43,0.27-3.13-0.27c-1.22-0.94-2.77-2.38-2.82-3.67
		c-0.05-1.27,1.39-2.82,2.54-3.84c0.65-0.58,2.03-0.46,3.08-0.46c25.12-0.02,50.25-0.02,75.37-0.01c0.75,0,1.51-0.04,2.24,0.1
		c2.25,0.41,3.82,1.69,3.78,4.06c-0.04,2.5-1.62,3.95-4.09,4.05c-3.2,0.13-6.41,0.05-9.62,0.05
		C304.65,328.5,294.6,328.5,284.55,328.5z"/>
	<path class="st0" d="M289.2,268.22c11,0,22.01-0.01,33.01,0.01c1.16,0,2.65-0.2,3.41,0.41c1.2,0.96,2.57,2.5,2.63,3.85
		c0.05,1.17-1.42,2.68-2.59,3.53c-0.81,0.6-2.25,0.44-3.41,0.44c-22.11,0.02-44.23,0.02-66.34,0.01c-0.64,0-1.29,0.03-1.92-0.03
		c-2.58-0.25-4.34-1.57-4.27-4.24c0.07-2.49,1.77-3.78,4.22-3.96c1.28-0.09,2.56-0.04,3.84-0.04
		C268.26,268.22,278.73,268.22,289.2,268.22z"/>
</g>
</svg>
