<?xml version="1.0" encoding="utf-8"?>
<!-- Generator: Adobe Illustrator 28.0.0, SVG Export Plug-In . SVG Version: 6.00 Build 0)  -->
<svg version="1.1" id="Layer_1" xmlns="http://www.w3.org/2000/svg" xmlns:xlink="http://www.w3.org/1999/xlink" x="0px" y="0px"
	 viewBox="0 0 384 288.97" style="enable-background:new 0 0 384 288.97;" xml:space="preserve">
<style type="text/css">
	.st0{fill:#3462BF;}
</style>
<g>
	<path class="st0" d="M384,285.15c-1.8,2.99-4.45,3.83-7.89,3.82c-122.74-0.07-245.49-0.07-368.23,0c-3.44,0-6.09-0.82-7.89-3.82
		c0-1.25,0-2.5,0-3.74c1.89-1.25,3.84-2.4,5.63-3.78c1.13-0.87,2.16-1.97,2.97-3.14c27.38-39.75,54.73-79.52,82.08-119.28
		c0.42-0.62,0.83-1.25,1.27-1.85c4.48-6.09,11.5-6.23,15.95-0.13c5.59,7.65,10.99,15.45,16.48,23.18c0.71,1,1.46,1.99,2.45,3.32
		c0.93-1.22,1.75-2.23,2.48-3.3c17.96-26.09,35.91-52.19,53.87-78.29c6.14-8.92,14.27-9.05,20.49-0.28
		c13.43,18.92,26.83,37.86,40.24,56.79c0.22,0.31,0.44,0.6,0.65,0.91c2.39,3.56,2.1,6.94-0.76,8.88c-2.78,1.89-5.87,1.07-8.32-2.29
		c-2.85-3.91-5.62-7.88-9.01-11.51c0.36,1.01,0.65,2.04,1.07,3.01c17.4,40.24,34.85,80.45,52.17,120.72
		c1.12,2.59,2.44,3.43,5.24,3.38c10.49-0.18,20.98-0.07,32.21-0.07c-1.01-1.52-1.7-2.61-2.44-3.65
		c-20.55-29.01-41.1-58.01-61.65-87.02c-0.43-0.61-0.86-1.22-1.27-1.85c-2.22-3.38-1.86-6.67,0.92-8.55
		c2.76-1.86,5.97-1.05,8.34,2.26c5.16,7.2,10.25,14.44,15.38,21.66c0.71,1,1.46,1.96,2.46,3.3c1.16-1.64,2.15-3.03,3.12-4.44
		c3.97-5.75,7.91-11.51,11.89-17.25c4.93-7.11,11.09-7.11,16.17,0.01c5.37,7.51,10.7,15.04,16.03,22.58
		c16.3,23,32.59,46,48.87,69.01c1.43,2.02,2.67,3.98,5.49,4.57c1.33,0.28,2.35,2.01,3.52,3.09C384,282.65,384,283.9,384,285.15z
		 M193.52,103.35c-0.65,0.73-1,1.04-1.26,1.42c-19.02,27.63-38,55.29-57.1,82.87c-1.49,2.16-0.49,3.34,0.6,4.88
		c19.48,27.47,38.97,54.93,58.38,82.45c1.34,1.91,2.65,2.8,5.12,2.78c21.99-0.11,43.98-0.06,65.97-0.08c1.05,0,2.1-0.14,3.61-0.24
		C243.68,219.25,218.68,161.48,193.52,103.35z M20.23,277.45c43.46,0,86.13,0,129.25,0c-16.67-38.52-33.19-76.68-49.92-115.34
		C72.91,200.86,46.71,238.95,20.23,277.45z M338.71,277.24c-12.43-28.7-24.75-57.16-37.3-86.16c-5.48,7.97-10.49,15.26-15.56,22.62
		c1.12,1.62,2.16,3.17,3.24,4.69c12.83,18.12,25.83,36.12,38.4,54.43C330.4,277.08,333.46,278.67,338.71,277.24z M131.58,206.04
		c-0.17,0.8-0.25,0.93-0.21,1.02c9.87,22.88,19.74,45.75,29.64,68.61c0.32,0.73,1,1.84,1.54,1.85c6.38,0.13,12.76,0.08,19.74,0.08
		C165.14,253.41,148.49,229.91,131.58,206.04z M332.91,233.81c-0.2,0.11-0.4,0.22-0.59,0.33c6.26,14.47,12.52,28.94,18.71,43.25
		c4.27,0,8.29,0,12.77,0C353.31,262.59,343.11,248.2,332.91,233.81z"/>
	<path class="st0" d="M274.16,26.63c16.09,0.87,28.23,8.25,35.63,22.98c2.09,4.16,1.34,7.47-1.8,9.03
		c-3.27,1.62-6.09,0.23-8.23-4.05c-6.04-12.09-18.49-18.57-31.23-16.25c-12.87,2.34-22.34,12.64-23.82,25.92
		c-1.42,12.74,7.12,25.7,19.68,29.88c12.96,4.31,27.19-1,34.05-12.73c0.63-1.07,1.12-2.22,1.7-3.33c1.8-3.43,4.66-4.64,7.67-3.27
		c2.95,1.35,4.1,4.52,2.55,7.91c-5.85,12.8-15.68,20.93-29.56,23.4c-22.04,3.93-43.13-10.71-46.73-32
		c-3.81-22.57,10.52-42.91,33.11-46.89C269.37,26.85,271.64,26.84,274.16,26.63z"/>
	<path class="st0" d="M242.66,31.17c-0.8,1-1.69,3.15-3.19,3.75c-1.67,0.66-4.42,0.59-5.79-0.4c-2.98-2.17-5.8-4.84-7.83-7.88
		c-1.02-1.52-0.98-4.89,0.08-6.31c1.06-1.43,4.86-2.68,5.93-1.9c3.76,2.71,6.89,6.3,10.16,9.64
		C242.45,28.51,242.34,29.49,242.66,31.17z"/>
	<path class="st0" d="M322.79,110.92c-0.88,1.11-1.77,3.28-3.28,3.87c-1.68,0.66-4.44,0.57-5.82-0.43c-2.98-2.16-5.53-4.99-7.96-7.8
		c-1.84-2.13-1.86-5.02,0.34-6.68c1.62-1.22,5.05-2.3,6.2-1.45c3.64,2.66,6.62,6.24,9.77,9.54
		C322.47,108.43,322.41,109.36,322.79,110.92z"/>
	<path class="st0" d="M279.08,10.33c0,1.61,0.06,3.23-0.01,4.84c-0.15,3.23-2.02,5.14-5.1,5.4c-3.14,0.27-5.51-1.49-5.84-4.56
		c-0.41-3.8-0.4-7.71,0.03-11.51c0.35-3.08,2.71-4.77,5.88-4.48c2.94,0.27,4.75,2.07,5.01,5.09c0.14,1.73,0.03,3.48,0.03,5.21
		C279.07,10.33,279.07,10.33,279.08,10.33z"/>
	<path class="st0" d="M330.44,61.26c1.62,0,3.25-0.12,4.85,0.03c3.19,0.3,5.01,2.21,5.14,5.34c0.12,2.99-1.57,5.21-4.49,5.52
		c-3.81,0.4-7.73,0.44-11.53,0.03c-3.08-0.33-4.85-2.69-4.59-5.82c0.26-3.07,2.16-4.96,5.4-5.11c1.74-0.08,3.48-0.01,5.23-0.01
		C330.44,61.25,330.44,61.25,330.44,61.26z"/>
	<path class="st0" d="M309.41,36.13c-1.16-0.92-3.32-1.81-3.94-3.33c-0.67-1.66-0.64-4.42,0.36-5.79c2.17-2.98,4.99-5.56,7.82-7.97
		c2.12-1.81,4.68-1.63,6.85,0.22c2.01,1.71,3.05,4.29,1.43,6.3c-2.84,3.53-6.33,6.56-9.63,9.71
		C311.83,35.72,310.91,35.7,309.41,36.13z"/>
	<path class="st0" d="M216.97,61.27c1.74,0,3.49-0.13,5.22,0.03c3,0.28,4.8,2.05,5.04,5.02c0.26,3.19-1.43,5.5-4.51,5.84
		c-3.8,0.42-7.72,0.43-11.52,0.01c-3.08-0.34-4.76-2.7-4.5-5.86c0.24-2.96,2.01-4.77,5.05-5.01
		C213.48,61.15,215.23,61.27,216.97,61.27z"/>
	<path class="st0" d="M279.08,123.24c0,1.61,0.07,3.23-0.01,4.84c-0.16,3.2-1.91,5.12-5.07,5.39c-3.18,0.27-5.52-1.44-5.86-4.5
		c-0.42-3.79-0.41-7.71,0.01-11.5c0.34-3.07,2.66-4.77,5.86-4.48c3.17,0.28,4.89,2.23,5.06,5.41
		C279.16,120.01,279.08,121.63,279.08,123.24z"/>
	<path class="st0" d="M229.37,115.9c-1.12-0.87-3.31-1.74-3.92-3.24c-0.68-1.66-0.62-4.42,0.37-5.79c2.16-2.97,4.97-5.54,7.8-7.94
		c2.11-1.79,5.06-1.84,6.73,0.27c1.25,1.57,2.31,5.01,1.47,6.18c-2.65,3.64-6.21,6.62-9.51,9.77
		C231.85,115.58,230.91,115.53,229.37,115.9z"/>
	<path class="st0" d="M189.67,173.78c-4.49,0.01-8.98,0.09-13.47-0.02c-3.89-0.09-6.09-2.25-6.04-5.63c0.04-3.19,2.2-5.46,5.83-5.5
		c9.35-0.12,18.71-0.13,28.07,0.01c3.44,0.05,5.81,2.65,5.76,5.66c-0.05,3.08-2.39,5.35-5.93,5.44
		C199.15,173.87,194.41,173.78,189.67,173.78z"/>
	<path class="st0" d="M200.09,195.82c-2.36,0-4.74,0.17-7.09-0.04c-3.26-0.3-5.43-2.69-5.42-5.6c0.01-3.05,2.37-5.4,5.84-5.48
		c4.6-0.11,9.21-0.12,13.81,0.02c3.26,0.1,5.52,2.39,5.61,5.33c0.09,2.86-2.1,5.4-5.3,5.71c-2.47,0.24-4.97,0.05-7.46,0.05
		C200.09,195.81,200.09,195.82,200.09,195.82z"/>
	<path class="st0" d="M191.22,232.18c-2.49,0-4.99,0.15-7.46-0.03c-3.21-0.23-5.03-2.22-5.14-5.33c-0.11-2.95,1.55-5.28,4.51-5.47
		c5.32-0.34,10.69-0.37,16-0.03c3.14,0.2,4.82,2.68,4.59,5.77c-0.21,2.88-1.97,4.85-5.04,5.04
		C196.21,232.3,193.71,232.18,191.22,232.18z"/>
	<path class="st0" d="M97.37,232.24c-4.61,0-9.23,0.08-13.84-0.03c-3.59-0.08-5.9-2.25-6.01-5.34c-0.11-3.04,2.17-5.68,5.65-5.74
		c9.47-0.16,18.95-0.17,28.42,0c3.6,0.07,5.64,2.51,5.55,5.74c-0.1,3.25-2.18,5.24-5.93,5.33
		C106.6,232.32,101.99,232.24,97.37,232.24z"/>
	<path class="st0" d="M107.42,254.31c-2.11,0-4.23,0.09-6.34-0.02c-3.77-0.2-6-2.43-5.93-5.77c0.07-3.21,2.21-5.29,5.86-5.38
		c4.47-0.11,8.95-0.11,13.43,0.01c3.62,0.1,5.73,2.25,5.75,5.49c0.02,3.17-2.16,5.42-5.68,5.64
		C112.15,254.42,109.78,254.3,107.42,254.31z"/>
</g>
</svg>
