<?xml version="1.0" encoding="utf-8"?>
<!-- Generator: Adobe Illustrator 28.0.0, SVG Export Plug-In . SVG Version: 6.00 Build 0)  -->
<svg version="1.1" id="Layer_1" xmlns="http://www.w3.org/2000/svg" xmlns:xlink="http://www.w3.org/1999/xlink" x="0px" y="0px"
	 viewBox="0 0 42.5 13.5" style="enable-background:new 0 0 42.5 13.5;" xml:space="preserve">
<style type="text/css">
	.st0{fill:#F8CF99;}
</style>
<path class="st0" d="M42.5,4.9c-0.1,0.2-0.1,0.4-0.2,0.5C42.3,5.5,42.5,4.9,42.5,4.9z"/>
<path class="st0" d="M4.3,1C4.1,0.7,3.8,0.5,3.4,0.4C3.1,0.2,2.7,0.2,2.2,0.2H0V7h1V4h0.9c0.5,0,1-0.1,1.4-0.2
	c0.4-0.2,0.7-0.4,1-0.7s0.3-0.7,0.3-1.1C4.6,1.6,4.5,1.2,4.3,1z M3.5,2.4c0,0.2-0.1,0.4-0.2,0.6C3.1,3.2,3,3.3,2.8,3.5
	C2.6,3.6,2.3,3.7,1.9,3.7H1V0.7c0.2-0.1,0.4-0.1,0.7-0.1c0.3,0,0.5-0.1,0.7-0.1C2.7,0.6,2.9,0.7,3,0.9C3.2,1,3.3,1.2,3.4,1.3
	c0.1,0.2,0.1,0.3,0.1,0.4c0,0.1,0,0.2,0,0.2C3.5,2.1,3.5,2.3,3.5,2.4z"/>
<polygon class="st0" points="7.9,4.1 6,0.2 4.9,0.2 7.2,4.5 7.2,7 8.2,7 8.2,4.4 10.2,0.2 9.7,0.2 "/>
<path class="st0" d="M14,3.7c0.6-0.1,1-0.3,1.4-0.6C15.8,2.8,16,2.4,16,1.9c0-0.4-0.1-0.7-0.3-0.9c-0.2-0.3-0.5-0.4-0.9-0.6
	S14,0.2,13.6,0.2h-2.2V7h1V3.7h0.8l2.4,3.4L16.8,7C16.8,7,14,3.7,14,3.7z M13,3.4h-0.7V0.7c0.2-0.1,0.4-0.1,0.7-0.1s0.5-0.1,0.7-0.1
	c0.3,0.1,0.5,0.2,0.6,0.3c0.1,0.1,0.3,0.3,0.3,0.4c0.1,0.1,0.1,0.3,0.1,0.4s0,0.2,0,0.2c0,0.2-0.1,0.5-0.1,0.7
	c-0.1,0.2-0.3,0.4-0.6,0.5C13.9,3.3,13.5,3.4,13,3.4z"/>
<path class="st0" d="M18.4,5.1h3.1L22.3,7h1.1l-3.1-7h-0.1l-3.1,7h0.6C17.7,7,18.4,5.1,18.4,5.1z M20,1.4l1.4,3.3h-2.7
	C18.6,4.7,20,1.4,20,1.4z"/>
<polygon class="st0" points="30.3,0.2 28.1,5.4 25.7,0.2 24.7,0.2 24.3,7 24.8,7 25.1,1.4 25.1,1.4 27.7,7 27.8,7 30.4,1.1 
	30.4,1.1 30.7,7 31.8,7 31.4,0.2 "/>
<rect x="33.6" y="0.2" class="st0" width="1" height="6.8"/>
<path class="st0" d="M40,6.8c0.5-0.1,0.9-0.3,1.2-0.6c0.3-0.3,0.6-0.6,0.8-1s0.3-0.9,0.3-1.5c0-0.7-0.1-1.2-0.4-1.7
	C41.7,1.6,41.4,1.3,41,1c-0.4-0.3-0.8-0.5-1.3-0.6s-0.9-0.2-1.4-0.2h-2V7h2.1C39,7,39.5,6.9,40,6.8L40,6.8z M37.8,6.6
	c-0.2,0-0.3,0-0.4-0.1V0.8c0.2-0.1,0.4-0.1,0.8-0.1c0.3,0,0.6-0.1,0.8-0.1c0.4,0.1,0.8,0.3,1.2,0.6s0.6,0.6,0.8,1
	c0.2,0.4,0.3,0.9,0.3,1.4c0,0.7-0.1,1.3-0.4,1.7s-0.6,0.8-1,1s-0.9,0.3-1.5,0.3C38.2,6.6,38,6.6,37.8,6.6L37.8,6.6z"/>
<path class="st0" d="M0.9,10.5h2v-0.3h-2V7.9c0.2-0.1,0.3-0.1,0.5-0.1c0.1,0,0.3,0,0.5,0l1.7,0.3l0.1-0.6H0.1v5.9h3.6l0.1-0.6
	l-2.8,0.3C0.9,13.1,0.9,10.5,0.9,10.5z"/>
<polygon class="st0" points="9.7,7.5 9.1,7.5 7.3,9.9 5.8,7.5 4.7,7.5 6.8,10.5 4.6,13.4 5.1,13.4 7,10.8 8.7,13.4 9.8,13.4 
	7.5,10.2 "/>
<path class="st0" d="M13.9,7.6c-0.3-0.1-0.7-0.2-1.1-0.2h-1.9v5.9h0.9v-2.6h0.8c0.5,0,0.9-0.1,1.2-0.2c0.4-0.1,0.6-0.3,0.8-0.6
	s0.3-0.6,0.3-1c0-0.3-0.1-0.6-0.3-0.8S14.2,7.8,13.9,7.6L13.9,7.6z M13.9,9.4c0,0.2-0.1,0.3-0.2,0.5c-0.1,0.2-0.2,0.3-0.4,0.4
	c-0.2,0.1-0.4,0.2-0.7,0.2h-0.8V7.9c0.1,0,0.3-0.1,0.6-0.1s0.4,0,0.6,0c0.2,0.1,0.4,0.2,0.6,0.3s0.2,0.3,0.3,0.4
	c0.1,0.1,0.1,0.3,0.1,0.4c0,0.1,0,0.2,0,0.2C14,9.1,13.9,9.3,13.9,9.4L13.9,9.4z"/>
<path class="st0" d="M17.1,13c-0.2,0-0.3-0.1-0.5-0.1V7.5h-0.9v5.9H19l0.1-0.6l-1.6,0.3C17.4,13.1,17.3,13.1,17.1,13z"/>
<path class="st0" d="M24.2,7.7c-0.4-0.2-0.9-0.3-1.4-0.3c-0.3,0-0.6,0-0.9,0.1c-0.3,0.1-0.6,0.2-0.9,0.3s-0.5,0.4-0.8,0.6
	S20,8.9,19.8,9.3c-0.1,0.4-0.2,0.8-0.2,1.3c0,0.6,0.1,1.2,0.4,1.6s0.6,0.8,1,1c0.4,0.2,0.9,0.3,1.4,0.3c0.3,0,0.6,0,0.9-0.1
	c0.3-0.1,0.6-0.2,0.9-0.3s0.5-0.4,0.8-0.6s0.4-0.6,0.5-0.9c0.1-0.4,0.2-0.8,0.2-1.3c0-0.6-0.1-1.2-0.4-1.6S24.6,7.9,24.2,7.7
	L24.2,7.7z M24.5,11.4c-0.1,0.3-0.2,0.6-0.4,0.9c-0.2,0.3-0.4,0.5-0.6,0.7c-0.2,0.2-0.6,0.3-0.9,0.3s-0.7-0.1-0.9-0.2
	c-0.2-0.1-0.5-0.4-0.6-0.6c-0.2-0.3-0.3-0.6-0.4-0.9c-0.1-0.3-0.1-0.7-0.1-1c0-0.4,0.1-0.8,0.2-1.1c0.1-0.4,0.3-0.7,0.6-1
	c0.3-0.3,0.6-0.5,1-0.6c0.4,0,0.8,0.1,1.1,0.2c0.3,0.1,0.5,0.3,0.7,0.6s0.3,0.5,0.4,0.9c0.1,0.3,0.1,0.7,0.1,1.1
	C24.6,10.7,24.5,11.1,24.5,11.4z"/>
<path class="st0" d="M30.2,10c0.3-0.2,0.5-0.6,0.5-1c0-0.3-0.1-0.6-0.3-0.8c-0.2-0.2-0.4-0.4-0.7-0.5c-0.3-0.1-0.7-0.2-1-0.2h-1.9
	v5.9h0.9v-2.8h0.7l2.1,3l1-0.1l-2.4-2.9C29.4,10.4,29.8,10.2,30.2,10z M28.1,10.3h-0.6V7.9c0.2,0,0.4-0.1,0.6-0.1s0.4,0,0.6,0
	C29,7.9,29.2,8,29.3,8.1s0.2,0.2,0.3,0.4c0.1,0.1,0.1,0.2,0.1,0.4c0,0.1,0,0.2,0,0.2c0,0.2,0,0.4-0.1,0.6s-0.2,0.4-0.5,0.5
	C28.9,10.2,28.5,10.3,28.1,10.3L28.1,10.3z"/>
<path class="st0" d="M33.2,10.5h2v-0.3h-2V7.9c0.2-0.1,0.3-0.1,0.5-0.1c0.2,0,0.3,0,0.5,0l1.7,0.3l0.1-0.6h-3.6v5.9h3.6l0.1-0.6
	l-2.8,0.3C33.2,13.1,33.2,10.5,33.2,10.5z"/>
<path class="st0" d="M40.9,10c0.3-0.2,0.5-0.6,0.5-1c0-0.3-0.1-0.6-0.3-0.8c-0.2-0.2-0.4-0.4-0.7-0.5c-0.3-0.1-0.7-0.2-1-0.2h-1.9
	v5.9h0.9v-2.8H39l2.1,3l1-0.1l-2.4-2.9C40.2,10.4,40.6,10.2,40.9,10z M38.8,10.3h-0.6V7.9c0.2,0,0.3-0.1,0.6-0.1s0.4,0,0.6,0
	C39.7,7.9,39.9,8,40,8.1s0.2,0.2,0.3,0.4c0.1,0.1,0.1,0.2,0.1,0.4c0,0.1,0,0.2,0,0.2c0,0.2,0,0.4-0.1,0.6s-0.2,0.4-0.5,0.5
	C39.6,10.2,39.3,10.3,38.8,10.3L38.8,10.3z"/>
</svg>
